<svg width="529" height="456" viewBox="0 0 529 456" fill="none" xmlns="http://www.w3.org/2000/svg">
    <path d="M396.664 0.793037C440.129 6.62025 475.809 46.1158 501.759 92.7335C527.708 139.351 543.927 193.091 508.895 220.285C473.863 247.478 388.23 247.478 351.901 290.859C315.572 334.887 329.195 422.295 311.031 447.546C292.866 472.797 243.562 435.892 199.448 409.993C155.335 384.094 116.41 369.202 76.1889 343.951C35.3187 318.7 -6.84907 282.442 0.935744 247.478C8.72056 212.515 66.4579 178.847 110.572 162.66C154.686 146.473 185.825 147.768 207.233 131.582C228.642 116.042 240.319 82.374 271.458 52.5905C302.597 22.1595 353.199 -5.03418 396.664 0.793037Z" fill="#E1E634"/>
    </svg>
    