<svg width="844" height="224" fill="none" xmlns="http://www.w3.org/2000/svg"><path d="M1.565 187.492c-1.003-31.015 12.167-65.628 31.646-91.956-2.83-11.53-6.136-23.702-10.127-36.529l26.555-.859 3.627 15.524c13.686-12.065 29.07-19.71 44.023-20.199 29.007-.943 49.77 19.157 51.02 57.77 1.197 36.827-20.517 63-51.31 63.997-9.373.302-19.059-2.064-24.504-4.788l4.418-22.039c4.766 2.301 10.873 4.562 18.016 4.327 17.183-.557 26.729-16.285 25.944-40.389-.735-22.761-8.791-36.8-25.974-36.243-12.5.405-25.426 8.197-36.636 20.623 4.522 22.415 7.435 43.103 8.097 63.404 1.315 40.388-7.398 61.011-32.177 61.805-19.19.627-31.798-9.245-32.617-34.458v.01Zm31.89 11.918c7.587-.248 10.174-9.941 9.258-38.061-.386-11.825-1.443-23.861-3.635-36.298-9.005 18.61-14.55 40.46-13.861 61.659.268 8.253 2.871 12.86 8.228 12.689l.01.011Z" fill="#6FA5A0" stroke="#DEDE3E" stroke-width="3" stroke-miterlimit="10"/><path d="M132.173 113.328c-.295-9.151.735-18.565 2.239-27.326l24.487-2.806c-1.315 7.634-1.777 14.132-1.535 21.497 1.003 31.015 18.897 45.404 43.001 44.62 25.89-.839 41.452-16.98 40.667-41.085-.734-22.761-12.578-36.454-31.103-35.847-13.167.426-19.854 7.797-19.468 19.623.289 8.929 4.116 16.621 9.449 22.701l-22.571 6.768c-6.716-7.372-11.945-17.032-12.357-29.754-.661-20.31 14.313-40.898 45.551-41.919 38.612-1.25 56.849 23.843 57.942 57.542 1.141 35.263-24.532 63.122-67.383 64.52-43.072 1.396-67.773-23.04-68.92-58.525l.001-.009Z" fill="#6FA5A0" stroke="#DEDE3E" stroke-width="3" stroke-miterlimit="10"/><path d="M244.653 138.935c-.564-17.404 7.926-38.01 21.215-55.195-5.236-9.881-11.395-20.634-18.464-32.015l27.897-.909 7.631 14.94c13.476-11.605 29.305-19.273 44.933-19.782 17.849-.578 29.131 9.557 29.662 25.842.577 17.848-9.73 30.48-25.375 44.159l-16.623-16.437c10.016-8.148 14.894-15.9 14.662-23.265-.164-5.135-2.928-7.728-8.508-7.54-8.929.288-19.665 6.67-29.402 16.366 7.701 16.947 13.379 33.522 13.833 47.576.734 22.762-9.107 36.036-31.426 36.767-17.404.564-29.352-9.551-30.033-30.527l-.002.02Zm30.203 7.961c5.357-.171 7.893-4.5 7.612-13.207-.262-8.031-2.336-16.907-6.237-27.05-5.048 9.766-8.275 20.377-7.942 30.416.191 6.023 1.885 9.992 6.577 9.842l-.01-.001Z" fill="#6FA5A0" stroke="#DEDE3E" stroke-width="3" stroke-miterlimit="10"/><path d="m339.743 110.047-.845-26.112-24.588-.543-.771-23.66 24.588.543-.819-25.214 27-.882.832 25.667c19.419-.412 38.589-1.705 60.2-3.738l.771 23.66c-21.602 2.044-40.772 3.337-60.2 3.738l.838 25.89c1.067 32.801 9.706 44.367 26.444 43.824 12.945-.419 19.39-8.449 19.017-19.831-.386-11.825-6.94-21.221-18.598-29.113l17.812-15.544c17.138 11.726 27.694 27.244 28.237 43.983.819 25.214-16.731 42.092-46.859 43.078-31.47 1.026-51.371-13.303-53.069-65.748l.01.002Z" fill="#6FA5A0" stroke="#DEDE3E" stroke-width="3" stroke-miterlimit="10"/><path d="M382.183 190.433c-.571-17.626 15.215-33.785 37.527-48.131l-1.448-16.934c-8.153 3.618-16.53 6.789-25.601 9.767l-7.375-20.533c11.947-3.742 22.312-7.65 31.555-11.977-2.972-50.166.351-92.5 42.081-93.856 18.747-.613 36.308 10.443 37.094 34.537.858 26.555-18.915 50.429-52.26 69.387l.739 9.138.424 6.017c13.621-7.145 27.935-13.414 41.59-19.449l6.476 20.569c-17.644 7.055-33.516 13.601-46.491 20.051 2.136 38.132.257 69.688-28.306 70.618-22.096.714-35.494-12.921-36.024-29.216l.019.012Zm34.176 6.709c6.246-.208 6.549-11.609 4.97-32.559-8.257 7.197-12.929 14.72-12.653 23.195.177 5.579 2.77 9.521 7.674 9.353l.009.011Zm52.236-152.495c-.288-8.93-3.789-13.5-10.256-13.295-14.731.483-17.695 19.115-16.027 56.816 18.987-13.8 26.766-28.79 26.283-43.521Z" fill="#6FA5A0" stroke="#DEDE3E" stroke-width="3" stroke-miterlimit="10"/><path d="M462.603 112.754c-.295-9.151.735-18.565 2.239-27.326l24.487-2.806c-1.315 7.635-1.777 14.132-1.535 21.498 1.003 31.014 18.897 45.404 43.001 44.619 25.89-.839 41.452-16.98 40.668-41.084-.735-22.762-12.579-36.455-31.104-35.848-13.166.426-19.854 7.798-19.468 19.623.289 8.929 4.116 16.621 9.449 22.702l-22.571 6.767c-6.716-7.372-11.944-17.041-12.357-29.754-.661-20.31 14.313-40.898 45.551-41.918 38.612-1.251 56.849 23.843 57.943 57.541 1.14 35.263-24.533 63.122-67.384 64.52-43.072 1.396-67.773-23.04-68.92-58.524l.001-.01Z" fill="#6FA5A0" stroke="#DEDE3E" stroke-width="3" stroke-miterlimit="10"/><path d="M597.171 148.144a224.71 224.71 0 0 1-17.798 9.29l-8.713-20.714c6.602-3.117 12.975-6.449 18.882-10.222-.817-4.661-1.428-9.562-1.593-14.697C586.168 56.904 600.086 4.17 637.811 2.946c19.866-.647 36.08 10.218 36.787 32.092 1.073 33.033-20.269 70.587-55.777 98.549 2.701 7.503 6.423 12.078 11.336 11.92 8.254-.268 16.282-7.68 24.264-23.351l16.97 13.518c-11.581 21.597-25.099 31.871-42.291 32.427-13.611.439-24.81-7.233-31.928-19.967l-.001.01Zm49.993-111.536c-.262-8.031-4.167-11.257-9.524-11.086-14.286.46-23.518 39.408-22.627 80.486 21.631-21.93 32.852-47.758 32.152-69.41l-.001.01Z" fill="#6FA5A0" stroke="#DEDE3E" stroke-width="3" stroke-miterlimit="10"/><path d="M654.955 123.489c-.597-18.524 2.027-40.721 9.175-75.143l27.454-.895c-7.16 33.968-9.789 56.396-9.188 74.689.503 15.397 2.265 21.595 7.622 21.424 5.358-.171 7.221-4.701 6.876-15.195-.345-10.493-2.837-18.447-7.383-27.904l22.057-8.763c7.27 10.709 11.665 22.181 12.098 35.57.798 24.548-13.062 38.174-33.816 38.848-23.429.765-33.931-12.968-34.893-42.651l-.002.02Zm8.198-105.27c-.281-8.707 7.085-15.645 16.679-15.954 9.595-.309 17.849 6.12 18.13 14.826.288 8.93-7.077 15.867-17.127 16.199-9.595.309-17.404-6.133-17.693-15.062l.011-.009Z" fill="#6FA5A0" stroke="#DEDE3E" stroke-width="3" stroke-miterlimit="10"/><path d="M706.004 104.843c-.295-9.151.734-18.565 2.238-27.326l24.488-2.806c-1.316 7.635-1.777 14.132-1.536 21.498 1.004 31.014 18.898 45.404 43.002 44.619 25.889-.839 41.452-16.98 40.667-41.084-.735-22.762-12.578-36.455-31.103-35.848-13.167.426-19.854 7.797-19.468 19.623.288 8.929 4.115 16.621 9.449 22.702l-22.571 6.767c-6.717-7.372-11.945-17.041-12.358-29.754-.661-20.31 14.313-40.898 45.551-41.918 38.613-1.251 56.849 23.842 57.943 57.541 1.14 35.263-24.532 63.122-67.383 64.52-43.072 1.396-67.773-23.04-68.92-58.524l.001-.01Z" fill="#6FA5A0" stroke="#DEDE3E" stroke-width="3" stroke-miterlimit="10"/></svg>