<?xml version="1.0" standalone="no"?>
<!DOCTYPE svg PUBLIC "-//W3C//DTD SVG 20010904//EN"
 "http://www.w3.org/TR/2001/REC-SVG-20010904/DTD/svg10.dtd">
<svg version="1.0" xmlns="http://www.w3.org/2000/svg"
 width="974.000000pt" height="974.000000pt" viewBox="0 0 974.000000 974.000000"
 preserveAspectRatio="xMidYMid meet">
<metadata>
Created by potrace 1.14, written by Peter Selinger 2001-2017
</metadata>
<g transform="translate(0.000000,974.000000) scale(0.100000,-0.100000)"
fill="#000000" stroke="none">
<path d="M6250 9543 c-269 -26 -483 -89 -740 -218 -624 -313 -1240 -976 -1594
-1715 -115 -242 -189 -446 -323 -890 -104 -349 -159 -503 -228 -640 -120 -238
-260 -389 -529 -569 -96 -65 -176 -113 -521 -316 -530 -313 -916 -607 -1316
-1005 -701 -698 -1054 -1353 -975 -1808 34 -196 121 -350 295 -523 170 -169
345 -287 626 -424 534 -261 1189 -442 2210 -609 1230 -203 1362 -229 2080
-405 543 -133 681 -164 873 -195 553 -91 847 -39 980 172 59 93 67 137 67 352
-1 222 -12 297 -116 805 -162 784 -193 1012 -193 1395 -1 276 11 390 59 568
84 314 226 544 509 828 263 262 415 375 1256 929 465 307 734 534 871 737 58
86 126 231 150 323 44 172 34 410 -27 621 -112 386 -425 846 -894 1314 -771
770 -1528 1202 -2224 1269 -104 10 -218 12 -296 4z"/>
</g>
</svg>
