<svg width="239" height="300" viewBox="0 0 239 300" fill="none" xmlns="http://www.w3.org/2000/svg">
    <path d="M199.476 40.0172C218.271 63.3731 225.371 91.2496 231.636 117.242C238.318 143.235 244.165 167.345 231.636 181.283C219.106 194.844 187.364 197.858 165.228 221.214C143.092 244.193 130.145 287.515 109.262 297.686C87.9612 307.48 58.7252 284.501 39.0952 260.392C19.4653 236.659 9.02387 212.173 4.01197 188.064C-0.999927 164.331 -0.582265 141.352 4.84729 117.619C9.85918 93.5098 19.883 69.0238 39.5129 46.0446C59.1428 23.0654 87.9612 1.59297 118.45 0.0861411C148.522 -1.42069 180.264 17.038 199.476 40.0172Z" fill="#E1E634"/>
    </svg>
    